<svg xmlns="http://www.w3.org/2000/svg" xmlns:xlink="http://www.w3.org/1999/xlink" preserveAspectRatio="xMidYMid" width="42" height="60" viewBox="0 0 42 60">
  <defs>
    <style>
      .cls-1 {
        fill: #005cb8;
        fill-rule: evenodd;
      }
    </style>
  </defs>
  <path d="M-0.000,60.000 L-0.000,-0.000 L42.000,-0.000 L42.000,60.000 L-0.000,60.000 ZM30.000,51.998 L35.997,51.998 L35.997,38.000 L30.000,38.000 L30.000,51.998 ZM35.997,36.000 L35.997,30.000 L30.000,30.000 L30.000,36.000 L35.997,36.000 ZM22.000,51.998 L28.000,51.998 L28.000,46.000 L22.000,46.000 L22.000,51.998 ZM22.000,44.000 L28.000,44.000 L28.000,38.000 L22.000,38.000 L22.000,44.000 ZM28.000,36.000 L28.000,30.000 L22.000,30.000 L22.000,36.000 L28.000,36.000 ZM14.000,27.999 L20.000,27.999 L20.000,21.999 L14.000,21.999 L14.000,27.999 ZM22.000,27.999 L28.000,27.999 L28.000,21.999 L22.000,21.999 L22.000,27.999 ZM14.000,51.998 L20.000,51.998 L20.000,46.000 L14.000,46.000 L14.000,51.998 ZM14.000,44.000 L20.000,44.000 L20.000,38.000 L14.000,38.000 L14.000,44.000 ZM20.000,36.000 L20.000,30.000 L14.000,30.000 L14.000,36.000 L20.000,36.000 ZM5.996,51.998 L12.000,51.998 L12.000,46.000 L6.000,46.000 L6.000,44.000 L12.000,44.000 L12.000,38.000 L6.000,38.000 L6.000,36.000 L12.000,36.000 L12.000,30.000 L6.000,30.000 L6.000,27.999 L12.000,27.999 L12.000,21.999 L5.996,21.999 L5.996,51.998 ZM35.997,5.998 L5.996,5.998 L5.996,15.999 L35.997,15.999 L35.997,5.998 ZM30.000,21.999 L30.000,27.999 L35.997,27.999 L35.997,21.999 L30.000,21.999 Z" class="cls-1"/>
</svg>
