<svg xmlns="http://www.w3.org/2000/svg" xmlns:xlink="http://www.w3.org/1999/xlink" preserveAspectRatio="xMidYMid" width="21" height="30" viewBox="0 0 21 30">
  <defs>
    <style>
      .cls-1 {
        fill: #4a97e5;
        fill-rule: evenodd;
      }
    </style>
  </defs>
  <path d="M-0.000,29.999 L-0.000,-0.000 L21.000,-0.000 L21.000,29.999 L-0.000,29.999 ZM15.000,25.998 L17.997,25.998 L17.997,19.000 L15.000,19.000 L15.000,25.998 ZM17.997,18.000 L17.997,15.000 L15.000,15.000 L15.000,18.000 L17.997,18.000 ZM11.000,25.998 L14.000,25.998 L14.000,23.000 L11.000,23.000 L11.000,25.998 ZM11.000,22.000 L14.000,22.000 L14.000,19.000 L11.000,19.000 L11.000,22.000 ZM14.000,18.000 L14.000,15.000 L11.000,15.000 L11.000,18.000 L14.000,18.000 ZM7.000,14.000 L10.000,14.000 L10.000,11.000 L7.000,11.000 L7.000,14.000 ZM11.000,14.000 L14.000,14.000 L14.000,11.000 L11.000,11.000 L11.000,14.000 ZM7.000,25.998 L10.000,25.998 L10.000,23.000 L7.000,23.000 L7.000,25.998 ZM7.000,22.000 L10.000,22.000 L10.000,19.000 L7.000,19.000 L7.000,22.000 ZM10.000,18.000 L10.000,15.000 L7.000,15.000 L7.000,18.000 L10.000,18.000 ZM2.998,25.998 L6.000,25.998 L6.000,23.000 L3.000,23.000 L3.000,22.000 L6.000,22.000 L6.000,19.000 L3.000,19.000 L3.000,18.000 L6.000,18.000 L6.000,15.000 L3.000,15.000 L3.000,14.000 L6.000,14.000 L6.000,11.000 L2.998,11.000 L2.998,25.998 ZM17.997,2.998 L2.998,2.998 L2.998,8.000 L17.997,8.000 L17.997,2.998 ZM15.000,11.000 L15.000,14.000 L17.997,14.000 L17.997,11.000 L15.000,11.000 Z" class="cls-1"/>
</svg>
