<svg xmlns="http://www.w3.org/2000/svg" xmlns:xlink="http://www.w3.org/1999/xlink" preserveAspectRatio="xMidYMid" width="28.97" height="26.75" viewBox="0 0 28.97 26.75">
  <defs>
    <style>
      .cls-1 {
        fill: #92c1ef;
        fill-rule: evenodd;
      }
    </style>
  </defs>
  <path d="M21.541,10.814 C21.541,10.814 22.713,9.923 21.823,9.032 C20.932,8.141 20.065,9.290 20.065,9.290 L13.094,16.260 C13.094,16.260 10.992,18.971 9.398,17.331 C7.804,15.690 10.468,13.634 10.468,13.634 L20.228,3.875 C20.228,3.875 22.971,0.851 25.550,3.429 C28.129,6.008 25.096,8.759 25.096,8.759 L11.883,21.972 C11.883,21.972 7.655,26.856 3.741,22.941 C-0.174,19.026 4.756,14.846 4.756,14.846 L14.789,4.813 C14.789,4.813 15.915,3.875 15.071,3.031 C14.227,2.187 13.289,3.312 13.289,3.312 L1.779,14.822 C1.779,14.822 -2.565,19.589 2.288,24.441 C7.139,29.294 11.907,24.949 11.907,24.949 L27.730,9.126 C27.730,9.126 30.894,5.633 27.120,1.859 C23.346,-1.915 19.854,1.249 19.854,1.249 L8.242,12.861 C8.242,12.861 4.752,15.694 7.916,18.859 C11.081,22.024 13.868,18.487 13.868,18.487 L21.541,10.814 Z" class="cls-1"/>
</svg>
