<svg xmlns="http://www.w3.org/2000/svg" xmlns:xlink="http://www.w3.org/1999/xlink" preserveAspectRatio="xMidYMid" width="18" height="24" viewBox="0 0 18 24">
  <defs>
    <style>
      .cls-1 {
        fill: #4a97e5;
        fill-rule: evenodd;
      }
    </style>
  </defs>
  <path d="M-0.002,23.999 L-0.002,-0.002 L13.935,-0.002 L17.998,3.999 L17.998,23.999 L-0.002,23.999 ZM15.998,4.936 L11.998,4.936 L11.998,1.998 L1.998,1.998 L1.998,21.936 L15.998,21.936 L15.998,4.936 ZM4.998,7.999 L3.998,7.999 L3.998,6.999 L4.998,6.999 L4.998,7.999 ZM4.998,10.999 L3.998,10.999 L3.998,9.999 L4.998,9.999 L4.998,10.999 ZM4.998,13.999 L3.998,13.999 L3.998,12.999 L4.998,12.999 L4.998,13.999 ZM4.998,16.999 L3.998,16.999 L3.998,15.999 L4.998,15.999 L4.998,16.999 ZM4.998,19.998 L3.998,19.998 L3.998,18.998 L4.998,18.998 L4.998,19.998 ZM13.998,7.999 L5.997,7.999 L5.997,6.999 L13.998,6.999 L13.998,7.999 ZM13.998,10.999 L5.997,10.999 L5.997,9.999 L13.998,9.999 L13.998,10.999 ZM13.998,13.999 L5.997,13.999 L5.997,12.999 L13.998,12.999 L13.998,13.999 ZM13.998,16.999 L5.997,16.999 L5.997,15.999 L13.998,15.999 L13.998,16.999 ZM13.998,19.998 L5.997,19.998 L5.997,18.998 L13.998,18.998 L13.998,19.998 Z" class="cls-1"/>
</svg>
