<svg xmlns="http://www.w3.org/2000/svg" xmlns:xlink="http://www.w3.org/1999/xlink" preserveAspectRatio="xMidYMid" width="22" height="22" viewBox="0 0 22 22">
  <defs>
    <style>
      .cls-1 {
        fill: #fff;
        fill-rule: evenodd;
      }
    </style>
  </defs>
  <path d="M21.426,21.425 C20.645,22.206 19.379,22.206 18.597,21.425 L14.355,17.183 C13.574,16.401 13.574,15.135 14.355,14.354 C15.136,13.573 16.402,13.573 17.183,14.354 L21.426,18.597 C22.207,19.378 22.207,20.644 21.426,21.425 ZM2.334,13.647 C-0.790,10.523 -0.790,5.458 2.334,2.334 C5.458,-0.791 10.524,-0.791 13.648,2.334 C16.772,5.458 16.772,10.523 13.648,13.647 C10.524,16.771 5.458,16.771 2.334,13.647 ZM12.234,3.748 C9.890,1.404 6.091,1.404 3.748,3.748 C1.405,6.091 1.405,9.890 3.748,12.233 C6.091,14.576 9.890,14.576 12.234,12.233 C14.577,9.890 14.577,6.091 12.234,3.748 Z" class="cls-1"/>
</svg>
