<svg xmlns="http://www.w3.org/2000/svg" xmlns:xlink="http://www.w3.org/1999/xlink" preserveAspectRatio="xMidYMid" width="16.187" height="16.187" viewBox="0 0 16.187 16.187">
  <defs>
    <style>
      .cls-1 {
        fill: #005cb8;
        fill-rule: evenodd;
      }
    </style>
  </defs>
  <path d="M15.883,15.883 C15.492,16.273 14.859,16.273 14.469,15.883 L11.640,13.054 C11.250,12.663 11.250,12.030 11.640,11.640 C12.031,11.249 12.664,11.249 13.054,11.640 L15.883,14.468 C16.273,14.859 16.273,15.492 15.883,15.883 ZM1.741,10.226 C-0.602,7.883 -0.602,4.084 1.741,1.741 C4.084,-0.603 7.883,-0.603 10.226,1.741 C12.569,4.084 12.569,7.883 10.226,10.226 C7.883,12.569 4.084,12.569 1.741,10.226 ZM9.519,2.447 C7.566,0.495 4.401,0.495 2.448,2.447 C0.495,4.400 0.495,7.566 2.448,9.519 C4.401,11.471 7.566,11.471 9.519,9.519 C11.472,7.566 11.472,4.400 9.519,2.447 Z" class="cls-1"/>
</svg>
