<svg xmlns="http://www.w3.org/2000/svg" xmlns:xlink="http://www.w3.org/1999/xlink" preserveAspectRatio="xMidYMid" width="19.94" height="27.438" viewBox="0 0 19.94 27.438">
  <defs>
    <style>
      .cls-1 {
        fill: #92c1ef;
        fill-rule: evenodd;
      }
    </style>
  </defs>
  <path d="M19.507,25.598 L19.503,25.600 C19.504,25.602 17.479,26.793 17.479,26.793 L13.238,19.628 L15.261,18.432 C15.700,18.175 16.264,18.313 16.525,18.754 C16.527,18.757 19.830,24.324 19.830,24.324 L19.829,24.329 C20.078,24.752 19.971,25.323 19.507,25.598 ZM3.483,17.394 C-2.472,7.051 0.710,2.487 1.834,1.645 L6.176,8.965 C5.130,9.583 5.632,10.972 6.254,12.331 C6.264,12.396 9.272,17.455 9.298,17.472 C10.853,19.577 11.696,20.546 12.695,19.957 L16.926,27.103 C15.729,27.841 9.758,28.295 3.483,17.394 ZM8.753,7.444 L8.752,7.447 C8.752,7.450 6.729,8.640 6.729,8.640 L2.393,1.316 L4.417,0.119 C4.854,-0.137 5.418,-0.001 5.680,0.443 C5.682,0.444 9.080,6.173 9.080,6.173 L9.079,6.179 C9.327,6.599 9.218,7.168 8.753,7.444 Z" class="cls-1"/>
</svg>
